<svg width="247" height="64" viewBox="0 0 247 64" fill="none" xmlns="http://www.w3.org/2000/svg">
<g clip-path="url(#clip0_183_17)">
<g opacity="0.4">
<path opacity="0.4" d="M57.9804 55.2515C57.5913 55.4474 56.7177 55.8087 56.25 55.9945L57.9804 55.2515Z" fill="white"/>
</g>
<path d="M36.8835 18.4886L26.8592 22.7303L13.0365 28.7153C10.1038 24.9199 8.47095 13.3827 11.2233 9.36159C12.0546 8.14908 13.3076 7.59692 15.0822 8.11796C19.552 9.42381 26.6974 16.7518 36.8835 18.4886Z" fill="#F9A429"/>
<g opacity="0.5">
<path opacity="0.5" d="M36.8719 18.5228L35.0708 19.2858C25.7323 17.1079 19.1024 10.4741 14.8721 9.23886C13.097 8.72107 11.8426 9.26997 11.0132 10.4825C10.5799 11.1164 10.2609 11.9332 10.0415 12.8713C10.2377 11.4735 10.6138 10.2661 11.2094 9.39722C12.0402 8.18517 13.2936 7.63255 15.0683 8.15406C19.5404 9.45805 26.6868 16.786 36.8719 18.5228Z" fill="white"/>
</g>
<g opacity="0.3">
<path opacity="0.3" d="M26.6942 22.8153L13.1267 28.5537C10.1935 24.7578 8.3059 13.4677 11.0573 9.44794C11.6659 9.21296 12.4233 9.25707 13.3197 9.90907C15.6131 11.579 21.1778 20.6029 26.6942 22.8153Z" fill="#000072"/>
</g>
<path d="M13.282 29.1005C13.1906 29.1007 13.1005 29.0798 13.0185 29.0395C12.9365 28.9992 12.8649 28.9407 12.8092 28.8683C11.314 26.9319 10.1447 23.2163 9.6128 19.1348C9.03537 14.7023 9.48356 11.0666 10.8184 9.11107C11.8635 7.58139 13.7139 7.36081 15.2072 7.72721C16.9349 8.1484 18.8802 9.59636 21.2387 11.1107C25.3659 13.7614 30.5284 17.3056 36.8951 18.3927C37.2205 18.4485 37.5181 18.2999 37.4623 18.6249C37.4355 18.7802 37.3481 18.9185 37.2194 19.0095C37.0907 19.1006 36.9311 19.1369 36.7756 19.1107C30.1685 17.9836 25.0483 13.9723 20.8287 11.2649C18.5477 9.80161 16.5765 8.53477 15.0357 8.08339C13.6288 7.67148 11.8226 8.27425 11.0769 9.36602C9.92058 11.0587 9.49192 15.3566 10.0233 19.4432C10.5222 23.2697 11.9295 26.7531 13.282 28.5029C13.4833 28.7643 13.9069 28.7745 13.647 28.977C13.5421 29.0569 13.4139 29.1002 13.282 29.1005Z" fill="#4B2600"/>
<path d="M13.6288 26.4225C13.7746 26.6901 13.9436 26.9445 14.1337 27.1827L23.9372 17.4771C18.2214 13.7351 14.1547 10.4649 13.0063 10.9933C12.8264 11.0769 12.6432 11.3021 12.473 11.6602C12.0151 12.621 11.6422 14.5394 11.6571 17.2416C11.6738 20.4919 12.4786 24.356 13.6288 26.4225Z" fill="#FFF3E9"/>
<g opacity="0.3">
<path opacity="0.3" d="M13.6976 26.3654C13.843 26.6323 14.0114 26.8859 14.2011 27.1233L24.0701 17.479C18.3548 13.737 14.2267 10.203 13.0774 10.7338C12.8975 10.8174 12.7129 11.2469 12.5409 11.6064C12.9696 11.7921 13.5535 12.2537 14.3541 13.1997C16.8647 16.1815 16.9498 19.3463 15.9274 22.3104C15.6326 23.1663 14.6019 24.9115 13.6976 26.3654Z" fill="#000072"/>
</g>
<path d="M14.27 27.7121H14.2407C14.1689 27.7079 14.0987 27.6889 14.0347 27.6562C13.9707 27.6235 13.9141 27.5778 13.8687 27.5221C12.2689 25.5647 11.294 20.7663 11.2758 17.2592C11.2554 13.6486 11.9021 11.0091 12.9249 10.5396C13.8901 10.0933 15.2891 11.0769 18.6356 13.5427C20.2243 14.7125 22.0249 16.0393 24.1176 17.4101C24.2322 17.4854 24.3122 17.6031 24.3401 17.7372C24.368 17.8714 24.3415 18.0111 24.2663 18.1258C24.2456 18.1571 24.2214 18.1861 24.1943 18.2121L14.6331 27.563C14.5362 27.6582 14.4059 27.7117 14.27 27.7121ZM13.4977 10.7769C12.3819 11.0091 11.6706 13.3881 11.6919 17.288C11.7101 20.698 12.9007 25.1867 14.0277 27.0294L23.5759 17.5197C21.6772 16.2515 19.552 14.6995 18.1614 13.6751C16.8768 12.7273 15.7698 11.9137 14.9241 11.3889C14.031 10.84 13.5028 10.7769 13.4977 10.7769Z" fill="#4B2600"/>
<path d="M34.9991 17.1228L45.0234 21.365L58.8457 27.35C61.7789 23.5546 63.4131 12.0174 60.6589 7.99811C59.8281 6.7856 58.5751 6.23345 56.8 6.75495C52.3302 8.05755 45.1866 15.3842 34.9991 17.1228Z" fill="#F9A429"/>
<g opacity="0.5">
<path opacity="0.5" d="M35.0089 17.1567L36.81 17.9201C46.149 15.7417 52.7788 9.10841 57.0092 7.87315C58.7857 7.3549 60.0386 7.90427 60.8681 9.11631C61.3019 9.75019 61.6208 10.5675 61.8398 11.5051C61.6417 10.1064 61.2656 8.90083 60.6705 8.03151C59.8392 6.819 58.5862 6.26685 56.8116 6.78788C52.3418 8.09048 45.1982 15.4208 35.0089 17.1567Z" fill="white"/>
</g>
<g opacity="0.3">
<path opacity="0.3" d="M45.1908 21.4489L58.7582 27.1873C61.6929 23.3919 63.5805 12.1013 60.829 8.08206C60.2204 7.84662 59.4631 7.89073 58.5667 8.54273C56.2695 10.2113 50.7043 19.2352 45.1908 21.4489Z" fill="#000072"/>
</g>
<path d="M58.602 27.7329C58.6934 27.733 58.7836 27.7121 58.8656 27.6719C58.9475 27.6316 59.0192 27.573 59.0749 27.5007C60.5701 25.5661 61.7398 21.8505 62.2712 17.769C62.8487 13.336 62.4005 9.70082 61.0657 7.74483C60.0205 6.21561 58.1701 5.99503 56.6768 6.36097C54.9491 6.78263 53.0039 8.23011 50.6458 9.74494C46.5182 12.3952 41.3556 15.9389 34.9894 17.0256C34.6639 17.0813 34.3659 16.9327 34.4217 17.2578C34.4349 17.3349 34.4631 17.4087 34.5049 17.4749C34.5466 17.5411 34.601 17.5985 34.665 17.6437C34.7289 17.6889 34.8012 17.721 34.8776 17.7383C34.954 17.7556 35.0331 17.7577 35.1103 17.7444C41.7155 16.6169 46.8357 12.606 51.0544 9.89633C53.3363 8.43073 55.3076 7.16574 56.8483 6.71668C58.2552 6.30477 60.0614 6.90755 60.8072 8.00071C61.9621 9.692 62.3921 13.9913 61.8588 18.0779C61.36 21.9044 59.9526 25.3878 58.6006 27.138C58.3993 27.3995 57.9758 27.4092 58.2357 27.6117C58.342 27.6895 58.4702 27.7319 58.602 27.7329Z" fill="#4B2600"/>
<path d="M58.2552 25.0554C58.1097 25.3228 57.9412 25.577 57.7517 25.8152L47.9482 16.1095C53.6636 12.3675 57.7303 9.0973 58.8786 9.62623C59.0586 9.70936 59.2399 9.93458 59.4119 10.2926C59.8698 11.2534 60.2427 13.1718 60.2278 15.8722C60.2102 19.1243 59.4035 22.9903 58.2552 25.0554Z" fill="#FFF3E9"/>
<g opacity="0.3">
<path opacity="0.3" d="M58.1864 24.9977C58.0412 25.2652 57.8727 25.5194 57.6829 25.7574L47.8125 16.1094C53.5278 12.3678 57.6582 8.83384 58.8066 9.36463C58.9865 9.44776 59.1716 9.87546 59.3431 10.2372C58.9145 10.423 58.3305 10.8841 57.5299 11.8301C55.017 14.8119 54.9338 17.9753 55.9543 20.9408C56.2514 21.8004 57.2789 23.5437 58.1864 24.9977Z" fill="#000072"/>
</g>
<path d="M57.251 26.1946L47.6879 16.8447C47.5898 16.7486 47.5338 16.6176 47.5323 16.4804C47.5309 16.3432 47.584 16.2109 47.68 16.1128C47.7066 16.0862 47.7356 16.0622 47.7665 16.0408C49.8587 14.67 51.6579 13.3432 53.248 12.1734C56.5954 9.70615 57.9934 8.72258 58.9586 9.17025C59.9815 9.64253 60.6272 12.2816 60.6077 15.889C60.5896 19.3988 59.6132 24.1973 58.0148 26.1519C57.9694 26.2075 57.9129 26.2531 57.8488 26.2857C57.7848 26.3183 57.7147 26.3373 57.6429 26.3414H57.6136C57.478 26.3424 57.3476 26.2896 57.251 26.1946ZM56.9632 10.0205C56.1165 10.5448 55.0068 11.3617 53.7241 12.3095C52.3339 13.3339 50.2088 14.8878 48.3095 16.1541L57.8577 25.6648C58.9865 23.8221 60.1758 19.3333 60.1939 15.9238C60.2148 12.023 59.5003 9.64299 58.3877 9.41266C58.3798 9.41266 57.853 9.47442 56.9632 10.0233V10.0205Z" fill="#4B2600"/>
<path d="M62.5823 52.1207C56.3676 62.1333 39.72 62.4245 35.7742 62.4245C31.8284 62.4245 15.178 62.1319 8.96657 52.1207C6.40018 47.984 7.11988 44.5787 8.1297 42.508C8.70853 41.3187 9.38082 40.5673 9.58074 40.3718C10.4474 35.2636 11.5223 12.2129 35.7765 12.2129C60.0308 12.2129 61.1052 35.2659 61.9723 40.3718C62.1717 40.5696 62.844 41.321 63.4233 42.508C64.429 44.5787 65.1487 47.9821 62.5823 52.1207Z" fill="#F9A429"/>
<path d="M62.188 52.441C55.9771 62.4517 39.3327 62.7461 35.3809 62.7461C31.429 62.7461 14.7893 62.4517 8.57648 52.441C6.00823 48.3038 6.72979 44.8989 7.73961 42.8282C9.91732 40.1376 13.7618 37.5719 19.6715 40.2699C21.6739 41.1852 22.9432 43.0739 26.3064 42.2371C28.0894 41.7927 30.5889 38.365 35.3809 38.3613C40.1696 38.3613 42.67 41.7908 44.4548 42.2352C47.8181 43.0711 49.0887 41.1834 51.0898 40.2681C56.9999 37.5691 60.8421 40.1357 63.0244 42.8268C64.0347 44.9003 64.7563 48.3038 62.188 52.441Z" fill="#FFF3E9"/>
<g opacity="0.3">
<path opacity="0.3" d="M62.188 52.4428C55.9733 62.4554 39.3257 62.7461 35.3808 62.7461C31.4359 62.7461 14.7846 62.4554 8.57322 52.4428C6.95714 49.8367 6.64471 47.5204 6.88694 45.6489C7.06036 47.0165 7.56062 48.5341 8.57322 50.1664C14.7846 60.179 31.4327 60.4702 35.3808 60.4702C39.329 60.4702 55.977 60.179 62.1884 50.1664C63.2011 48.5341 63.7018 47.0165 63.8752 45.6489C64.1165 47.5213 63.8041 49.8367 62.188 52.4428Z" fill="#000072"/>
</g>
<path d="M35.6598 45.7223L35.5877 45.7339V45.7112L35.6598 45.7223Z" fill="#512717"/>
<path d="M35.7292 45.7112V45.7341L35.6598 45.7224L35.7292 45.7112Z" fill="#512717"/>
<path d="M26.1019 14.4051C27.5822 13.9054 29.1151 13.5692 30.6582 13.343C32.2013 13.1169 33.7564 13.0296 35.3107 13.0147C36.8668 13.0202 38.4209 13.1288 39.9627 13.3398C41.5035 13.5669 43.0364 13.9003 44.519 14.4004C46.0018 14.8927 47.4272 15.5429 48.7708 16.3397C50.1096 17.1366 51.3504 18.0873 52.4678 19.1725C52.4725 19.1771 52.4776 19.1836 52.4823 19.1887C52.5035 19.1761 52.5228 19.1605 52.5394 19.1423C52.5938 19.0867 52.6239 19.0119 52.6233 18.9342C52.6227 18.8566 52.5914 18.7823 52.5362 18.7276C51.419 17.6424 50.1783 16.6916 48.8396 15.8948C47.4941 15.0972 46.0664 14.447 44.5813 13.9555C43.0991 13.454 41.5681 13.122 40.0274 12.8949C38.4854 12.684 36.9312 12.5754 35.3748 12.5698C33.8224 12.5847 32.2654 12.6762 30.7228 12.8981C29.1802 13.1201 27.6506 13.4587 26.1665 13.9588C24.682 14.4503 23.2549 15.1005 21.9101 15.8981C20.5712 16.6954 19.3299 17.6461 18.2116 18.7308C18.1589 18.782 18.1275 18.8512 18.1235 18.9245C18.1195 18.9978 18.1434 19.0699 18.1902 19.1265C19.2959 18.0611 20.5205 17.1262 21.8399 16.3402C23.1863 15.5431 24.6153 14.8942 26.1019 14.4051Z" fill="#4B2600"/>
<path d="M18.1386 59.699C16.6166 59.0615 15.1671 58.2635 13.8148 57.3185C12.4605 56.3642 11.2112 55.2367 10.1656 53.9313C9.11998 52.6259 8.26312 51.1552 7.74287 49.5294C7.21937 47.9119 7.08872 46.1292 7.46392 44.4481C7.55406 44.0283 7.67432 43.6154 7.82377 43.2128C7.96917 42.8098 8.14127 42.4168 8.33891 42.0365C8.53564 41.6565 8.75695 41.2896 9.00143 40.9383C9.12603 40.7637 9.25342 40.5904 9.39104 40.4219C9.48914 40.303 9.58537 40.1869 9.6951 40.0689C9.74159 39.7341 9.77832 39.3909 9.82435 39.0473L9.97824 37.8283C10.081 37.0128 10.1991 36.1946 10.3413 35.381C10.6168 33.7455 10.987 32.1273 11.4502 30.5347C11.6827 29.7373 11.9444 28.9465 12.2373 28.1663C12.5302 27.3861 12.8459 26.6157 13.1992 25.8606C13.8436 24.4916 14.6256 23.176 15.5857 22.0062C15.5693 21.9802 15.5494 21.9564 15.5267 21.9356C15.4974 21.9099 15.4634 21.8901 15.4265 21.8776C15.3896 21.865 15.3505 21.8599 15.3116 21.8625C15.2727 21.8651 15.2347 21.8753 15.1998 21.8927C15.1649 21.91 15.1338 21.9341 15.1082 21.9635C14.0105 23.2201 13.1355 24.663 12.427 26.1694C12.0723 26.9241 11.7547 27.6954 11.4651 28.4746C11.1754 29.2539 10.9123 30.0447 10.6784 30.843C10.2144 32.4354 9.84411 34.0536 9.56957 35.6893C9.4273 36.5048 9.30921 37.3216 9.20646 38.1371L9.05257 39.3556C9.0084 39.7007 8.97074 40.0439 8.92332 40.3773C8.8136 40.4948 8.71736 40.6095 8.61879 40.7302C8.47932 40.8983 8.35379 41.0716 8.22965 41.2466C7.98548 41.598 7.76418 41.9647 7.56713 42.3444C7.36938 42.7246 7.19728 43.1176 7.05199 43.5207C6.90279 43.9234 6.78254 44.3362 6.69214 44.756C6.31416 46.4375 6.4448 48.2198 6.9711 49.8377C7.49274 51.4631 8.34821 52.9357 9.39383 54.2392C10.4394 55.5427 11.6906 56.6721 13.043 57.6264C14.3949 58.5721 15.8445 59.3701 17.3668 60.0068C18.8769 60.6523 20.4353 61.1539 22.0161 61.5593C25.1776 62.3534 28.4121 62.7616 31.6428 62.8698C31.7172 62.8721 31.7897 62.8462 31.8459 62.7974C31.902 62.7486 31.9376 62.6804 31.9455 62.6065C31.9469 62.5859 31.9469 62.5653 31.9455 62.5447C28.87 62.4138 25.7964 62.007 22.7865 61.2519C21.2 60.8526 19.6463 60.3335 18.1386 59.699Z" fill="#4B2600"/>
<path d="M52.8979 59.699C54.4199 59.0616 55.8694 58.2636 57.2217 57.3185C58.576 56.3642 59.8253 55.2367 60.8713 53.9313C61.9174 52.6259 62.7738 51.1552 63.2941 49.5294C63.8171 47.9119 63.9496 46.1292 63.573 44.4481C63.4827 44.0283 63.3624 43.6155 63.2132 43.2128C63.0678 42.8097 62.8956 42.4167 62.6976 42.0365C62.501 41.6564 62.2797 41.2895 62.0351 40.9383C61.9109 40.7637 61.7835 40.5904 61.6459 40.4219C61.5478 40.303 61.4511 40.1869 61.3418 40.0689C61.2954 39.7341 61.2568 39.3909 61.2126 39.0473L61.0587 37.8283C60.9555 37.0128 60.8379 36.1946 60.6956 35.381C60.42 33.7455 60.0496 32.1273 59.5863 30.5347C59.3538 29.7373 59.0925 28.9465 58.7996 28.1663C58.5067 27.3861 58.191 26.6157 57.8363 25.8606C57.1915 24.4916 56.4095 23.176 55.4494 22.0062C55.4658 21.9802 55.4857 21.9564 55.5084 21.9356C55.5377 21.9099 55.5717 21.8901 55.6086 21.8776C55.6455 21.865 55.6846 21.8599 55.7235 21.8625C55.7624 21.8651 55.8004 21.8753 55.8353 21.8927C55.8702 21.91 55.9013 21.9341 55.9269 21.9635C57.0245 23.2201 57.8995 24.663 58.6081 26.1694C58.9628 26.9241 59.2804 27.6954 59.5714 28.4746C59.8625 29.2539 60.1242 30.0447 60.3581 30.843C60.8223 32.4354 61.1927 34.0536 61.4674 35.6893C61.6096 36.5048 61.7273 37.3216 61.8305 38.1371L61.9844 39.3556C62.0309 39.7007 62.0676 40.0439 62.1136 40.3773C62.2229 40.4948 62.3196 40.6095 62.4177 40.7302C62.5572 40.8983 62.6827 41.0716 62.8073 41.2466C63.0513 41.5981 63.2726 41.9648 63.4698 42.3444C63.6674 42.7247 63.8395 43.1177 63.985 43.5207C64.1339 43.9235 64.2542 44.3363 64.3448 44.756C64.7228 46.4375 64.5917 48.2198 64.0658 49.8377C63.5437 51.4631 62.6883 52.9357 61.6431 54.2392C60.598 55.5427 59.3464 56.6721 57.9935 57.6264C56.6417 58.5722 55.1921 59.3703 53.6696 60.0068C52.1596 60.6523 50.6011 61.1539 49.0204 61.5593C45.8589 62.3534 42.6244 62.7616 39.3936 62.8698C39.3158 62.8722 39.2402 62.8438 39.1832 62.7909C39.1262 62.7379 39.0924 62.6647 39.0891 62.587C39.0881 62.5729 39.0881 62.5588 39.0891 62.5447C42.1641 62.4138 45.2382 62.007 48.2481 61.2519C49.8352 60.8528 51.3896 60.3337 52.8979 59.699Z" fill="#4B2600"/>
<path d="M35.6623 44.2178L35.591 44.2276V44.2061L35.6623 44.2178Z" fill="#512717"/>
<path d="M35.7325 44.2061V44.2276L35.6617 44.2178L35.7325 44.2061Z" fill="#512717"/>
<path d="M40.1993 44.0673C40.1993 44.0673 40.7177 45.5692 39.3625 46.34C38.0569 47.0831 36.5194 46.1195 35.7979 45.5576C35.6679 45.4569 35.5628 45.3278 35.4905 45.1803C35.4182 45.0327 35.3807 44.8706 35.3808 44.7063C35.3809 44.8708 35.3435 45.033 35.2714 45.1808C35.1993 45.3287 35.0944 45.4581 34.9647 45.5594C34.2418 46.1213 32.7057 47.0821 31.4001 46.3419C30.0426 45.5724 30.5633 44.0692 30.5633 44.0692C30.5633 44.0692 30.8855 40.0481 35.3841 40.0481C39.8827 40.0481 40.1993 44.0673 40.1993 44.0673Z" fill="#FFF3E9"/>
<path d="M38.7874 40.5133C38.143 42.3156 35.3809 43.3303 35.3809 43.3303C35.3809 43.3303 32.6197 42.3138 31.9753 40.5115C31.5155 39.2223 34.7648 39.012 35.3809 39.012C35.9969 39.012 39.2472 39.2242 38.7874 40.5133Z" fill="#4B2600"/>
<g opacity="0.5">
<path opacity="0.5" d="M36.7933 39.834C36.5269 40.2895 35.3818 40.2816 35.3818 40.2816C35.3818 40.2816 34.2367 40.2895 33.9703 39.834C33.7787 39.5089 35.1265 39.4551 35.3818 39.4551C35.637 39.4551 36.9848 39.5071 36.7933 39.834Z" fill="white"/>
</g>
<path d="M28.9649 47.9236C30.8887 48.2189 32.7773 47.4889 33.9968 46.5574C34.5744 46.1087 35.0645 45.5577 35.4427 44.932C35.6708 44.5668 35.8431 44.1698 35.9541 43.7539C36.0276 43.4752 35.936 43.0057 36.2796 42.8251C37.2773 42.2943 36.2991 41.2861 35.1688 41.3855C34.0465 41.4835 33.5081 42.6092 34.6765 42.9588C34.7913 42.983 34.9012 43.026 35.0019 43.0861L34.6253 42.7708C35.3502 43.8885 34.57 45.441 33.4231 46.3229C32.2045 47.2609 30.6572 47.4996 28.9639 47.9018C28.9477 47.905 28.9444 47.925 28.9672 47.9282L28.9649 47.9236Z" fill="#4B2600"/>
<path d="M43.1651 47.8516C41.4165 47.6292 39.8363 47.5558 38.4131 46.7701C37.7129 46.3842 37.155 45.917 36.8049 45.3663C36.6362 45.1026 36.4989 44.8202 36.3958 44.5248C36.3619 44.4235 36.1145 43.6425 36.1392 43.6295C37.1973 43.1734 36.8365 42.0413 35.472 42.0413C34.1679 42.0413 33.6588 43.2022 34.8043 43.6295C35.0921 43.7358 35.2558 44.502 35.3785 44.7045C35.573 45.0276 35.8005 45.3296 36.0573 45.6059C36.6283 46.2254 37.3003 46.7435 38.0449 47.1383C39.4666 47.8767 41.4063 48.3457 43.1651 47.8786C43.1814 47.8786 43.1879 47.8572 43.1651 47.854V47.8516Z" fill="#4B2600"/>
<path d="M43.6705 4.62652C43.6705 2.64453 40.1649 1.07397 35.9034 1.07397C31.6419 1.07397 28.0815 2.64453 28.0815 4.62652C28.0867 4.98461 28.1957 5.33351 28.3953 5.63099L30.5456 10.4559C30.6804 10.7299 30.8896 10.9605 31.1494 11.1212C31.4093 11.282 31.7092 11.3664 32.0148 11.3647H39.3044C39.5917 11.3662 39.8743 11.2917 40.1235 11.1487C40.3726 11.0057 40.5794 10.7994 40.7228 10.5507L43.2534 5.78795C43.5231 5.42387 43.6705 5.03146 43.6705 4.62652Z" fill="#381F1F"/>
<path d="M39.3044 11.4382H32.0139C31.6948 11.4391 31.3819 11.3507 31.1107 11.1829C30.8395 11.0151 30.6208 10.7747 30.4796 10.489L28.3316 5.66541C28.1263 5.35664 28.0143 4.99536 28.009 4.62472C28.009 3.64116 28.8458 2.72074 30.3648 2.0381C31.8525 1.36845 33.821 0.999268 35.9034 0.999268C37.9858 0.999268 39.9409 1.37078 41.4147 2.0381C42.9164 2.72121 43.7426 3.6393 43.7426 4.62472C43.7426 5.03663 43.5984 5.44158 43.3139 5.82748L40.7847 10.587C40.6355 10.8471 40.4199 11.0629 40.1598 11.2125C39.8997 11.362 39.6045 11.4399 39.3044 11.4382ZM30.6102 10.4268C30.7396 10.6876 30.9395 10.907 31.1873 11.0601C31.4352 11.2132 31.721 11.2938 32.0125 11.2928H39.3044C39.5784 11.294 39.8478 11.2231 40.0856 11.0871C40.3234 10.9511 40.5211 10.7549 40.6587 10.5182L43.1916 5.75039L43.1949 5.74575C43.4631 5.38306 43.5989 5.00691 43.5989 4.62472C43.5989 2.70635 40.1473 1.14601 35.9058 1.14601C33.8429 1.14601 31.8981 1.51056 30.4275 2.1723C29.7125 2.49412 29.1513 2.86888 28.7603 3.28311C28.3595 3.70988 28.1559 4.1608 28.1559 4.62472C28.1615 4.96896 28.2666 5.30424 28.4586 5.59018L28.4637 5.6004L30.6102 10.4268Z" fill="#784421"/>
<path d="M12.7306 26.8804C12.8987 26.3703 13.1284 25.8825 13.4145 25.4278C13.2969 25.4828 13.1891 25.5567 13.0956 25.6466C17.0558 16.0278 24.6164 11.1522 35.5863 11.1522C47.1546 11.1522 54.9166 16.559 58.6806 27.2301C59.2838 28.1582 59.7603 29.1625 60.0972 30.2166L59.7016 28.8819C59.0144 26.56 58.1422 24.4262 57.1119 22.544C55.8687 20.2727 54.3573 18.2972 52.6198 16.6733C50.6179 14.8022 48.2672 13.3497 45.632 12.3582C42.6825 11.2469 39.303 10.6841 35.5877 10.6841C32.1887 10.6841 29.0644 11.1564 26.3064 12.0861C23.8116 12.9275 21.5558 14.1628 19.6013 15.7593C16.39 18.3817 13.905 22.0415 12.2136 26.6376L11.7752 27.8306L12.6046 26.8749L12.7306 26.8804Z" fill="#784421"/>
<path d="M13.4828 25.3949L14.9046 24.936C14.2881 25.086 13.8055 25.2397 13.4828 25.3949Z" fill="#784421"/>
<path d="M35.3753 19.3216C38.9199 19.3216 41.5179 17.008 44.1466 17.34C45.805 17.549 47.9218 18.5521 49.43 19.5914C49.6508 19.7432 50.1237 19.9801 50.3296 20.078C54.8859 22.2416 57.4867 26.3575 59.7211 29.7493C57.2431 21.07 51.2757 10.7439 35.4473 10.7439C21.0295 10.7439 14.7921 19.3104 11.9244 27.3982C17.928 21.807 21.5019 18.9245 25.4073 17.2402C27.2279 16.4544 24.4421 17.6962 26.8123 17.5555C29.2671 17.4102 32.4946 19.3216 35.3753 19.3216Z" fill="#381F1F"/>
<path d="M30.8832 10.7304C35.7435 6.64054 40.2282 9.97065 40.5397 10.4689C40.6819 10.696 40.5215 11.0373 40.5215 11.0373C40.5215 11.0373 37.1876 10.5079 36.0001 10.6078C34.8127 10.7076 30.8488 11.1288 30.8488 11.1288L30.8832 10.7304Z" fill="#1E1313"/>
<path d="M32.8316 7.86792C32.2919 8.18509 32.7447 9.36463 32.9953 9.81834C33.2459 10.272 33.4909 10.5892 33.6806 10.7429L33.841 10.6663L34.12 10.5042L33.9433 10.3649C33.8749 10.311 33.603 9.99341 33.3724 9.57546C33.1418 9.15752 32.926 8.6309 32.8609 8.09826L32.8316 7.86792Z" fill="#784421"/>
<path d="M33.9424 9.19807C34.1397 9.68242 34.3664 10.1543 34.6212 10.6112L34.7355 10.8123L35.1103 10.5657L34.994 10.3646C34.7497 9.92624 34.5323 9.4734 34.3431 9.0086C34.0228 8.22565 33.7234 7.23557 33.7643 6.46423L33.7773 6.22925C32.9902 6.49581 33.7229 8.65892 33.9424 9.19807Z" fill="#784421"/>
<path d="M34.9759 8.83544C35.0435 9.21624 35.1296 9.59316 35.2344 9.96622C35.3213 10.2685 35.3883 10.4692 35.4669 10.6066L35.5831 10.8058L35.955 10.556L35.8416 10.3591C35.7662 10.1881 35.704 10.0116 35.6556 9.83109C35.5557 9.4749 35.4738 9.11393 35.4101 8.74953C35.2595 7.8997 35.1633 6.84787 35.2855 5.88706L35.3153 5.65161C34.6114 5.67855 34.8731 8.24567 34.9759 8.83544Z" fill="#784421"/>
<path d="M36.4302 6.70337C36.5185 7.28153 36.4302 7.86015 36.3814 8.38955C36.3125 9.11631 36.2079 9.94153 36.1024 10.4398L36.0559 10.672L36.486 10.7751L36.5325 10.5429C36.6454 10.0019 36.7482 9.17529 36.8189 8.43692C36.8686 7.70458 36.936 6.74377 36.4302 6.70337Z" fill="#784421"/>
<path d="M38.1704 6.27832L38.1509 6.5133C38.1263 6.80261 37.9352 7.59671 37.6962 8.37595C37.4572 9.15518 37.1662 9.95485 36.9746 10.2962L36.8589 10.4982L37.235 10.742L37.348 10.5409C37.5902 10.1109 37.8701 9.31865 38.1119 8.52316C38.3295 7.70445 38.6749 6.38745 38.1704 6.27832Z" fill="#784421"/>
<path d="M39.1295 7.82397L39.0705 8.05106C39.0082 8.2944 38.4112 9.87935 38.0742 10.3679L37.9435 10.556L38.3457 10.7046L38.4275 10.6474C38.8431 10.0266 39.6265 8.03713 39.1295 7.82397Z" fill="#784421"/>
<path d="M21.991 19.9967L11.9751 27.6103L14.4792 23.5846L20.625 17.8935L24.2663 17.1765L24.469 17.946L21.991 19.9967Z" fill="#381F1F"/>
<path d="M59.2697 28.9845C59.2697 28.9845 48.5959 18.0129 45.1559 17.3972C41.7159 16.7814 45.2066 15.0901 45.2066 15.0901L51.6812 18.4736L57.5485 25.9079L59.2697 28.9845Z" fill="#381F1F"/>
<path d="M21.8715 20.0392C22.9659 18.425 25.7745 16.234 27.8537 16.3139C30.6772 16.4235 34.2139 18.1208 35.7384 18.0033C37.2629 17.8858 41.7336 15.9512 44.0796 16.2744C46.4256 16.5976 49.1882 19.4903 49.4988 19.9769C49.8093 20.4636 47.8418 18.5866 46.844 18.3024C45.8463 18.0182 45.0215 17.3234 43.8946 17.4052C42.7676 17.4869 38.8269 18.652 37.8505 19.0686C36.8742 19.4851 36.5794 19.7652 35.5817 19.709C34.584 19.6528 31.3313 18.3251 30.6386 18.1324C29.9459 17.9397 27.4487 17.2598 26.7681 17.4005C26.0874 17.5412 22.6684 19.1861 21.8715 20.0392Z" fill="#1E1313"/>
<path d="M28.3837 15.6585C28.6357 16.5097 28.9956 17.3563 29.5107 17.804L29.653 17.9284L29.9147 17.6623L29.7753 17.5397C29.381 17.1979 28.9998 16.3829 28.7575 15.5624C28.5153 14.7418 28.3963 13.8962 28.4274 13.5335L28.4418 13.3538C27.8816 13.3807 28.2907 15.3367 28.3837 15.6585Z" fill="#784421"/>
<path d="M31.4806 17.3842C31.6319 17.6825 31.8028 17.9706 31.992 18.2466C32.097 18.4073 32.2164 18.5582 32.3486 18.6975L32.4881 18.8266L32.7628 18.5716L32.6271 18.4425C32.5153 18.319 32.4126 18.1875 32.3198 18.0492C32.1385 17.7872 31.9755 17.5131 31.8321 17.2286C31.5001 16.5752 31.2058 15.7403 31.2277 14.9169L31.2309 14.7354C30.5121 15.0572 31.2839 16.9904 31.4806 17.3842Z" fill="#784421"/>
<path d="M33.6462 17.1683C33.7887 17.6893 33.9585 18.2026 34.1548 18.7059C34.2353 18.9083 34.3101 19.0774 34.3757 19.2092C34.4412 19.3411 34.4756 19.4196 34.5556 19.4981L34.69 19.6272L34.9689 19.3774L34.835 19.2469C34.848 19.2599 34.7843 19.1749 34.7253 19.0569C34.6663 18.939 34.596 18.776 34.5175 18.58C34.325 18.0888 34.1591 17.5876 34.0205 17.0786C33.6997 15.9084 33.4626 14.4953 33.6425 13.4397L33.6718 13.26C32.8238 13.5526 33.3975 16.3417 33.6462 17.1683Z" fill="#784421"/>
<path d="M37.3842 13.1917C37.5474 13.5789 37.3842 15.1328 37.2842 15.984C37.1355 17.262 36.8607 18.6667 36.5152 19.2635L36.4222 19.4237L36.7626 19.595L36.8556 19.4348C37.274 18.7109 37.533 17.3191 37.6702 16.0235C37.7585 15.1667 38.0254 13.2664 37.3842 13.1917Z" fill="#784421"/>
<path d="M39.9343 14.4102C39.8478 15.1163 39.7227 15.8172 39.5596 16.5096C39.3666 17.2824 39.0821 18.0588 38.7827 18.3983L38.6599 18.5376L38.9575 18.7698L39.0802 18.6305C39.4764 18.1814 39.7512 17.3887 39.9343 16.5932C40.1143 15.8154 40.2626 14.7371 39.9343 14.4102Z" fill="#784421"/>
<path d="M42.8662 13.5442C42.9382 14.3801 42.3836 16.3727 41.6081 17.4348L41.4951 17.5815L41.8094 17.7924L41.9224 17.6452C42.5565 17.1292 43.6607 13.749 42.8662 13.5442Z" fill="#784421"/>
<path d="M40.6424 10.9301C40.6424 10.5247 38.845 9.64746 35.869 9.64746C32.893 9.64746 30.8213 10.5572 30.8213 10.9626C30.8213 11.368 32.9084 10.7768 35.8857 10.7768C38.8631 10.7768 40.6424 11.3369 40.6424 10.9301Z" fill="#D30707"/>
<path d="M25.9429 34.8357L25.6551 34.4976C25.5519 34.3732 25.4389 34.2524 25.3296 34.1261C25.1055 33.8828 24.8749 33.6427 24.6322 33.4138C24.1482 32.9582 23.6364 32.5282 23.0733 32.172C22.7899 31.9945 22.4967 31.8331 22.1951 31.6886C21.8872 31.5472 21.5705 31.4256 21.2471 31.3245C20.5962 31.1169 19.8988 31.0124 19.1675 30.9697H19.1549C19.0715 30.9643 18.9925 30.9301 18.9316 30.873C18.8706 30.8158 18.8314 30.7393 18.8208 30.6565C18.8101 30.5736 18.8286 30.4897 18.8731 30.419C18.9177 30.3483 18.9854 30.2952 19.0647 30.269C19.8407 30.016 20.6557 29.9041 21.4712 29.9388C22.3101 29.9772 23.1369 30.1539 23.9181 30.4617C25.0969 30.9188 26.1596 31.6314 27.0294 32.5482C27.1754 32.6986 27.3111 32.8588 27.4478 33.0237C27.5148 33.1068 27.5785 33.1918 27.6422 33.28C27.6752 33.3227 27.7059 33.3701 27.7351 33.4193L27.8402 33.5809C27.9976 33.8224 28.0569 34.1147 28.0061 34.3983C27.9553 34.682 27.7982 34.9356 27.5667 35.1075C27.3353 35.2795 27.0469 35.357 26.7604 35.324C26.4738 35.2911 26.2106 35.1504 26.0242 34.9304L25.9429 34.8357Z" fill="#4B2600"/>
<path d="M29.3489 29.3868C28.7961 30.0304 27.4594 29.7922 26.3636 28.8541C25.2678 27.9161 24.827 26.6335 25.3789 25.9898C25.9308 25.3462 27.0898 25.5682 28.1856 26.5062C29.2815 27.4443 29.9003 28.7432 29.3489 29.3868Z" fill="white"/>
<path d="M44.2772 34.8357L44.565 34.4976C44.6701 34.3732 44.7812 34.2524 44.8905 34.1261C45.1146 33.8828 45.3452 33.6427 45.5879 33.4138C46.0719 32.9582 46.5837 32.5282 47.1468 32.172C47.4308 31.9951 47.7247 31.8343 48.0269 31.6904C48.3344 31.5484 48.6507 31.4262 48.9739 31.3245C49.6285 31.1169 50.325 31.0124 51.0549 30.9697H51.0661C51.1495 30.9643 51.2285 30.9301 51.2894 30.873C51.3504 30.8158 51.3896 30.7393 51.4002 30.6565C51.4109 30.5736 51.3924 30.4897 51.3479 30.419C51.3034 30.3483 51.2356 30.2952 51.1563 30.269C50.3804 30.016 49.5653 29.9041 48.7498 29.9388C47.9109 29.9772 47.0841 30.1539 46.3029 30.4617C45.1242 30.9189 44.0616 31.6315 43.1916 32.5482C43.0461 32.6986 42.9104 32.8588 42.7732 33.0237C42.7063 33.1068 42.6426 33.1918 42.5789 33.28C42.5459 33.3227 42.5147 33.3701 42.4859 33.4193L42.378 33.5782C42.2207 33.8196 42.1614 34.1119 42.2122 34.3955C42.263 34.6792 42.4201 34.9328 42.6515 35.1048C42.883 35.2767 43.1713 35.3542 43.4579 35.3213C43.7444 35.2884 44.0077 35.1476 44.194 34.9277L44.2772 34.8357Z" fill="#4B2600"/>
<path d="M40.8749 29.3868C41.4277 30.0304 42.7625 29.7922 43.8602 28.8541C44.9578 27.9161 45.3977 26.6335 44.8449 25.9898C44.2921 25.3462 43.1339 25.5682 42.0381 26.5062C40.9423 27.4443 40.3221 28.7432 40.8749 29.3868Z" fill="white"/>
</g>
<path d="M210.669 17.2778C209.397 12.8669 205.009 11.1129 201.099 13.3633C199.859 14.0776 198.865 15.0756 197.931 16.1523C195.901 18.4936 194.161 21.0611 192.48 23.6545C191.877 23.393 191.687 22.8628 191.383 22.4493C189.919 20.4483 188.349 18.5427 186.581 16.8166C186.019 16.2687 185.433 15.7366 184.804 15.273C180.147 11.843 175.02 13.7708 173.91 19.5597C172.142 28.7838 171.106 38.1196 170.174 47.4638C169.945 49.761 170.206 52.0272 171.308 54.1135C173.222 57.7364 176.772 57.9677 179.145 54.6391C180.792 52.328 181.392 49.6794 181.7 46.8983C182.124 43.045 181.872 39.1408 182.566 35.3102C182.776 34.1565 182.914 32.9699 183.742 31.8431C185.182 34.4824 186.39 37.0739 188.117 39.3392C190.237 42.1175 193.065 42.5722 195.896 40.5327C197.645 39.2733 199.07 37.6478 200.535 36.0685C201.052 35.5123 201.443 34.7864 202.219 34.4967C202.615 34.9816 202.469 35.5387 202.514 36.0477C202.804 39.385 202.81 42.7294 202.905 46.0737C202.979 48.6657 202.979 51.279 203.695 53.8145C204.358 56.1715 205.315 57.1088 207.362 57.3183C209.502 57.5371 210.977 56.6605 211.947 54.545C212.887 52.4967 213.189 50.2783 213.439 48.0668C214.185 41.4676 213.522 34.9158 212.644 28.3861C212.142 24.6557 211.714 20.9002 210.669 17.2778Z" fill="#ED5135"/>
<path d="M126.198 9.65103C125.191 10.1253 124.387 10.8551 123.676 11.7054C122.072 13.6241 121.659 15.9606 121.555 18.3776C121.41 21.7394 121.948 25.0465 122.483 28.3416C122.671 29.4994 122.383 29.8352 121.265 29.7722C119.211 29.6574 117.15 29.6194 115.093 29.6402C114.165 29.6499 114.099 29.2313 114.213 28.469C114.394 27.2649 114.556 26.0515 114.635 24.8363C114.851 21.5018 115.112 18.1507 114.097 14.8875C113.471 12.8734 112.299 11.434 110.117 11.1826C106.748 10.7968 103.944 12.9466 103.259 16.3695C103.006 17.631 102.958 18.8954 102.974 20.1671C103.069 27.7034 103.204 35.2398 103.253 42.7762C103.268 45.1103 103.091 47.4467 103.335 49.7758C103.575 52.0626 103.925 54.3041 105.68 56.0043C107.616 57.8822 109.875 57.8007 111.617 55.7305C112.636 54.5181 113.046 53.0607 113.21 51.5C113.509 48.6971 113.526 45.8869 113.486 43.0712C113.452 40.5875 114.124 39.7103 116.533 39.3509C118.413 39.0703 120.325 39.0212 122.217 38.8063C123.139 38.7016 123.336 39.0013 123.253 39.9395C123.034 42.4214 122.818 44.9153 122.825 47.4037C122.832 49.8716 123.321 52.2664 125.053 54.1749C126.943 56.259 128.821 55.9839 130.015 53.3927C130.723 51.8556 131.22 50.219 131.417 48.53C132.346 40.5231 133.25 32.5116 133.578 23.9383C133.578 20.4714 133.829 16.4691 132.696 12.5918C131.808 9.55609 129.003 8.33113 126.198 9.65103Z" fill="#ED5135"/>
<path d="M98.9731 7.11423C97.3732 5.79755 95.4612 5.23553 93.4485 5.21495C86.6931 5.14715 81.0335 7.66971 76.8521 13.1913C69.7798 22.5301 72.2179 33.9389 82.3524 39.4156C83.5973 40.0889 84.8137 40.8094 85.8969 41.7404C87.4623 43.086 87.8439 44.4953 87.1045 46.1196C86.292 47.9034 84.7974 48.7278 82.9143 48.4271C81.47 48.1961 80.0933 47.7075 78.7212 47.2016C77.222 46.6485 75.7106 46.4133 74.142 46.915C71.2479 47.8412 70.2015 50.6051 71.7538 53.2702C72.5645 54.6627 73.7297 55.5913 75.227 56.0803C78.6621 57.2025 82.1646 57.9268 86.2379 58.0025C86.8203 57.9661 87.8686 57.9707 88.8935 57.8244C93.1671 57.2166 96.9828 55.8064 99.1273 51.5028C101.92 45.8975 100.715 39.1121 96.0902 34.9928C94.3631 33.4536 92.4562 32.1266 90.7352 30.5813C86.4625 26.7472 86.5533 22.3763 90.9146 18.617C92.9418 16.8641 95.2858 15.5185 97.8191 14.6534C99.2932 14.147 100.723 13.5812 100.969 11.7343C101.228 9.7981 100.388 8.27896 98.9731 7.11423Z" fill="#ED5135"/>
<path d="M167.545 20.8739C166.922 18.5651 165.249 16.9877 163.371 16.8731C161.494 16.7586 159.708 18.1304 158.842 20.4178C158.619 21.0085 158.495 21.6493 158.398 22.2793C158.069 24.4232 158.326 26.5596 158.59 28.6825C159.129 33.0151 159.157 37.3351 158.461 41.6499C158.228 43.0881 157.775 44.4603 157.054 45.7115C155.727 48.0152 153.455 48.1591 151.823 46.0629C150.959 44.9543 150.539 43.6368 150.223 42.2687C149.378 38.6068 149.793 34.9112 150.037 31.2227C150.037 29.1872 150.06 27.1513 150.03 25.1168C149.998 22.915 149.78 20.7374 149.098 18.6296C147.991 15.213 145.65 13.8071 142.216 14.5166C139.587 15.0606 138.1 16.8745 137.229 19.3278C136.415 21.618 136.157 24.0245 136.217 26.4423C136.378 33.1353 137.042 39.8066 138.204 46.3995C138.957 50.6807 140.817 54.4314 144.921 56.465C153.696 60.8116 164.671 55.5302 166.837 45.8059C168.517 38.2628 168.217 30.5875 167.881 22.929C167.844 22.2337 167.731 21.5446 167.545 20.8739Z" fill="#ED5135"/>
<path d="M246.577 29.8091C245.507 21.7506 240.501 16.6528 233.057 16.3128C226.211 16.0013 217.381 19.2507 215.996 30.1869C214.996 38.0792 216.762 45.4803 220.12 52.5436C220.747 53.8629 221.791 54.8539 222.975 55.6861C228.692 59.7023 240.473 59.0135 244.459 49.4867C246.259 45.1847 247.061 40.7071 246.989 35.7634C247.049 33.9533 246.852 31.8798 246.577 29.8091ZM237.772 38.7116C237.624 41.2184 237.334 43.7276 236.296 46.0509C235.505 47.8204 234.417 49.4484 232.299 49.3919C230.122 49.3339 228.648 47.9208 227.746 45.9622C226.762 43.828 226.73 41.5094 226.675 39.1179C226.782 37.6613 226.775 36.1122 227.101 34.5814C227.677 31.8728 229.394 30.1813 231.74 29.111C234.027 28.0682 235.978 28.9242 236.996 31.2872C238.023 33.6731 237.921 36.2061 237.772 38.7116Z" fill="#ED5135"/>
<defs>
<clipPath id="clip0_183_17">
<rect width="71.0369" height="61.2612" fill="white" transform="translate(0 1.30347)"/>
</clipPath>
</defs>
</svg>
