<svg width="22" height="19" viewBox="0 0 22 19" fill="none" xmlns="http://www.w3.org/2000/svg">
<g clip-path="url(#clip0_152_459)">
<g opacity="0.4">
<path opacity="0.4" d="M17.9563 16.7318C17.8358 16.7926 17.5653 16.9046 17.4204 16.9623L17.9563 16.7318Z" fill="white"/>
</g>
<path d="M11.4226 5.32986L8.31814 6.64541L4.03727 8.50164C3.12901 7.3245 2.62333 3.74627 3.47573 2.49914C3.73317 2.12308 4.12122 1.95183 4.67082 2.11343C6.0551 2.51844 8.26804 4.7912 11.4226 5.32986Z" fill="#F9A429"/>
<g opacity="0.5">
<path opacity="0.5" d="M11.4192 5.34057L10.8614 5.57721C7.96927 4.90172 5.91602 2.84429 4.60589 2.46117C4.05614 2.30058 3.66767 2.47082 3.4108 2.84688C3.2766 3.04348 3.17783 3.29682 3.10986 3.58776C3.17063 3.15423 3.28711 2.77976 3.47156 2.51028C3.72886 2.13437 4.11705 1.96298 4.66665 2.12472C6.05166 2.52915 8.26488 4.80191 11.4192 5.34057Z" fill="white"/>
</g>
<g opacity="0.3">
<path opacity="0.3" d="M8.26713 6.67177L4.06531 8.45152C3.1569 7.27424 2.57231 3.77264 3.42442 2.52593C3.6129 2.45306 3.84746 2.46674 4.12506 2.66895C4.83535 3.18688 6.55872 5.98562 8.26713 6.67177Z" fill="#000072"/>
</g>
<path d="M4.11348 8.62115C4.08518 8.62119 4.05726 8.61471 4.03186 8.60223C4.00647 8.58974 3.98429 8.57158 3.96704 8.54914C3.50398 7.94855 3.14186 6.79618 2.97714 5.53032C2.79831 4.15558 2.93711 3.02799 3.35049 2.42149C3.67417 1.94706 4.24724 1.87865 4.70972 1.99228C5.24478 2.12292 5.84721 2.572 6.57766 3.04167C7.85582 3.86378 9.45464 4.963 11.4264 5.30017C11.5272 5.31745 11.6193 5.27136 11.6021 5.37218C11.5937 5.42033 11.5667 5.46322 11.5268 5.49146C11.487 5.51969 11.4375 5.53098 11.3894 5.52283C9.3432 5.17328 7.75748 3.92917 6.45066 3.08949C5.74426 2.63566 5.13376 2.24275 4.65659 2.10275C4.22089 1.975 3.6615 2.16195 3.43055 2.50056C3.07246 3.02554 2.9397 4.35851 3.10428 5.62596C3.25877 6.81274 3.69462 7.8931 4.11348 8.43579C4.17582 8.51688 4.30699 8.52005 4.2265 8.58284C4.19402 8.60761 4.15432 8.62106 4.11348 8.62115Z" fill="#4B2600"/>
<path d="M4.22089 7.79058C4.26604 7.87358 4.31836 7.95248 4.37726 8.02636L7.41336 5.01617C5.64319 3.8556 4.38374 2.84136 4.02809 3.00526C3.97237 3.03118 3.91564 3.10104 3.86294 3.21208C3.72111 3.51008 3.60563 4.10505 3.61024 4.94315C3.61542 5.9512 3.86467 7.14966 4.22089 7.79058Z" fill="#FFF3E9"/>
<g opacity="0.3">
<path opacity="0.3" d="M4.24203 7.77292C4.28703 7.85568 4.33921 7.93433 4.39797 8.00797L7.45437 5.0168C5.68434 3.85623 4.40588 2.76017 4.04995 2.9248C3.99423 2.95072 3.93706 3.08395 3.88379 3.19543C4.01654 3.25304 4.19739 3.3962 4.44534 3.68959C5.22286 4.61439 5.24921 5.59594 4.93259 6.51527C4.8413 6.78071 4.52208 7.32196 4.24203 7.77292Z" fill="#000072"/>
</g>
<path d="M4.41936 8.19062H4.41029C4.38806 8.18933 4.36634 8.18342 4.3465 8.17328C4.32667 8.16314 4.30917 8.14898 4.2951 8.13171C3.79965 7.52463 3.4977 6.03639 3.49209 4.9487C3.48575 3.82888 3.68604 3.01023 4.00281 2.86461C4.30173 2.7262 4.73498 3.03125 5.7714 3.79604C6.2634 4.15885 6.82107 4.57033 7.46915 4.9955C7.50465 5.01885 7.52944 5.05534 7.53808 5.09695C7.54672 5.13856 7.5385 5.1819 7.51523 5.21745C7.50879 5.22718 7.50131 5.23616 7.49291 5.24424L4.53182 8.14438C4.50183 8.17392 4.46145 8.19052 4.41936 8.19062ZM4.1802 2.93821C3.83463 3.01023 3.61433 3.74808 3.62096 4.95763C3.62657 6.01522 3.99532 7.40739 4.34435 7.9789L7.30141 5.0295C6.71336 4.63616 6.0552 4.15481 5.62453 3.83709C5.2267 3.54313 4.88387 3.29079 4.62195 3.12804C4.34536 2.9578 4.18179 2.93821 4.1802 2.93821Z" fill="#4B2600"/>
<path d="M10.8391 4.90635L13.9436 6.22204L18.2244 8.07828C19.1328 6.90114 19.6389 3.32291 18.7859 2.07635C18.5286 1.70029 18.1406 1.52904 17.5908 1.69078C16.2065 2.09478 13.9942 4.36711 10.8391 4.90635Z" fill="#F9A429"/>
<g opacity="0.5">
<path opacity="0.5" d="M10.8423 4.9168L11.4001 5.15358C14.2923 4.47795 16.3456 2.42066 17.6557 2.03754C18.2059 1.87681 18.5939 2.04719 18.8508 2.42311C18.9852 2.6197 19.0839 2.87319 19.1518 3.16398C19.0904 2.73017 18.9739 2.35628 18.7896 2.08666C18.5322 1.7106 18.1441 1.53935 17.5945 1.70095C16.2102 2.10495 13.9979 4.37842 10.8423 4.9168Z" fill="white"/>
</g>
<g opacity="0.3">
<path opacity="0.3" d="M13.9956 6.24802L18.1974 8.02777C19.1063 6.85064 19.6908 3.34889 18.8387 2.10233C18.6502 2.02931 18.4157 2.04299 18.1381 2.24521C17.4267 2.7627 15.7031 5.56145 13.9956 6.24802Z" fill="#000072"/>
</g>
<path d="M18.1489 8.19706C18.1772 8.1971 18.2051 8.19062 18.2305 8.17813C18.2559 8.16565 18.2781 8.14748 18.2953 8.12505C18.7584 7.52503 19.1207 6.37266 19.2852 5.1068C19.4641 3.73191 19.3253 2.60446 18.9119 1.99782C18.5882 1.52354 18.0151 1.45512 17.5527 1.56862C17.0176 1.69939 16.4152 2.14833 15.6849 2.61815C14.4065 3.44011 12.8077 4.53919 10.8361 4.87621C10.7353 4.8935 10.643 4.84741 10.6603 4.94823C10.6644 4.97215 10.6731 4.99504 10.6861 5.01557C10.699 5.03611 10.7158 5.0539 10.7356 5.06792C10.7554 5.08194 10.7778 5.09191 10.8015 5.09728C10.8251 5.10264 10.8496 5.10328 10.8735 5.09917C12.9192 4.74947 14.5049 3.5055 15.8114 2.6651C16.5181 2.21055 17.1286 1.81822 17.6058 1.67894C18.0415 1.55119 18.6009 1.73814 18.8318 2.07718C19.1895 2.60173 19.3227 3.93514 19.1575 5.20258C19.003 6.38937 18.5672 7.46972 18.1485 8.01256C18.0861 8.09365 17.9549 8.09667 18.0354 8.15947C18.0684 8.18361 18.1081 8.19676 18.1489 8.19706Z" fill="#4B2600"/>
<path d="M18.0414 7.36654C17.9963 7.44946 17.9442 7.5283 17.8855 7.60217L14.8494 4.59199C16.6194 3.43141 17.8788 2.41717 18.2345 2.58122C18.2902 2.607 18.3464 2.67685 18.3996 2.7879C18.5415 3.08589 18.6569 3.68087 18.6523 4.51839C18.6469 5.52702 18.397 6.72605 18.0414 7.36654Z" fill="#FFF3E9"/>
<g opacity="0.3">
<path opacity="0.3" d="M18.0201 7.34879C17.9752 7.43175 17.923 7.5106 17.8642 7.58442L14.8074 4.5921C16.5774 3.43167 17.8566 2.33561 18.2122 2.50024C18.2679 2.52602 18.3253 2.65867 18.3784 2.77087C18.2456 2.82848 18.0648 2.9715 17.8168 3.26488C17.0386 4.18968 17.0128 5.1708 17.3289 6.09056C17.4209 6.35716 17.7391 6.89784 18.0201 7.34879Z" fill="#000072"/>
</g>
<path d="M17.7305 7.71991L14.7689 4.82006C14.7385 4.79027 14.7212 4.74964 14.7207 4.70707C14.7203 4.66451 14.7367 4.62351 14.7665 4.59307C14.7747 4.58483 14.7836 4.57736 14.7932 4.57075C15.4412 4.14558 15.9984 3.73409 16.4908 3.37129C17.5275 2.60607 17.9605 2.30101 18.2594 2.43986C18.5762 2.58633 18.7761 3.40484 18.7701 4.52365C18.7645 5.61221 18.4621 7.10045 17.9671 7.70666C17.953 7.72392 17.9355 7.73805 17.9157 7.74817C17.8959 7.75829 17.8741 7.76416 17.8519 7.76543H17.8428C17.8009 7.76575 17.7605 7.74938 17.7305 7.71991ZM17.6414 2.70357C17.3792 2.86618 17.0355 3.11952 16.6383 3.41349C16.2077 3.73121 15.5496 4.21313 14.9614 4.60589L17.9184 7.55558C18.268 6.98408 18.6363 5.5919 18.642 4.53445C18.6484 3.32462 18.4271 2.58648 18.0826 2.51504C18.0801 2.51504 17.917 2.5342 17.6414 2.70444V2.70357Z" fill="#4B2600"/>
<path d="M19.3816 15.7608C17.457 18.8662 12.3013 18.9565 11.0792 18.9565C9.85722 18.9565 4.70063 18.8658 2.77696 15.7608C1.98216 14.4778 2.20505 13.4217 2.51779 12.7795C2.69705 12.4106 2.90526 12.1776 2.96717 12.1169C3.23556 10.5326 3.56846 3.38354 11.08 3.38354C18.5915 3.38354 18.9242 10.5334 19.1927 12.1169C19.2545 12.1783 19.4627 12.4113 19.6421 12.7795C19.9536 13.4217 20.1765 14.4773 19.3816 15.7608Z" fill="#F9A429"/>
<path d="M19.2595 15.8602C17.336 18.9649 12.1812 19.0563 10.9574 19.0563C9.73347 19.0563 4.58018 18.9649 2.65608 15.8602C1.8607 14.577 2.08417 13.521 2.39691 12.8788C3.07134 12.0443 4.26197 11.2486 6.09218 12.0854C6.71233 12.3692 7.10542 12.955 8.14702 12.6955C8.69921 12.5576 9.47328 11.4946 10.9574 11.4934C12.4404 11.4934 13.2148 12.557 13.7675 12.6949C14.8091 12.9541 15.2027 12.3687 15.8224 12.0848C17.6527 11.2477 18.8426 12.0437 19.5185 12.8784C19.8314 13.5215 20.0549 14.577 19.2595 15.8602Z" fill="#FFF3E9"/>
<g opacity="0.3">
<path opacity="0.3" d="M19.2595 15.8608C17.3349 18.9661 12.1792 19.0563 10.9574 19.0563C9.7357 19.0563 4.57882 18.9661 2.65516 15.8608C2.15467 15.0525 2.05791 14.3341 2.13292 13.7537C2.18663 14.1778 2.34156 14.6485 2.65516 15.1548C4.57882 18.2601 9.73469 18.3504 10.9574 18.3504C12.1802 18.3504 17.336 18.2601 19.2597 15.1548C19.5733 14.6485 19.7284 14.1778 19.7821 13.7537C19.8568 14.3344 19.76 15.0525 19.2595 15.8608Z" fill="#000072"/>
</g>
<path d="M11.0438 13.7765L11.0215 13.7801V13.7729L11.0438 13.7765Z" fill="#512717"/>
<path d="M11.065 13.7729V13.7801L11.0437 13.7765L11.065 13.7729Z" fill="#512717"/>
<path d="M8.08382 4.06346C8.54227 3.90849 9.017 3.80421 9.49489 3.73407C9.97278 3.66393 10.4544 3.63685 10.9358 3.63224C11.4177 3.63396 11.899 3.66764 12.3765 3.73306C12.8537 3.80349 13.3284 3.9069 13.7876 4.06202C14.2468 4.2147 14.6882 4.41635 15.1043 4.66348C15.519 4.91064 15.9032 5.2055 16.2493 5.54205C16.2507 5.54349 16.2523 5.54551 16.2538 5.54709C16.2604 5.54319 16.2663 5.53833 16.2715 5.53269C16.2883 5.51545 16.2976 5.49226 16.2975 5.46817C16.2973 5.44408 16.2876 5.42104 16.2705 5.40407C15.9245 5.06749 15.5402 4.77263 15.1256 4.5255C14.709 4.27813 14.2668 4.07648 13.8069 3.92404C13.3478 3.76849 12.8737 3.66551 12.3965 3.59508C11.919 3.52968 11.4376 3.496 10.9556 3.49426C10.4749 3.49887 9.99265 3.52724 9.5149 3.59609C9.03715 3.66494 8.56344 3.76993 8.10383 3.92505C7.64407 4.07749 7.20211 4.27914 6.78563 4.52651C6.37096 4.7738 5.98656 5.06865 5.64022 5.40508C5.6239 5.42096 5.61415 5.4424 5.61292 5.46514C5.6117 5.48788 5.61908 5.51025 5.63359 5.52779C5.97601 5.19736 6.35526 4.9074 6.76389 4.66362C7.18087 4.41641 7.62344 4.21518 8.08382 4.06346Z" fill="#4B2600"/>
<path d="M5.61749 18.1112C5.14613 17.9135 4.69722 17.666 4.27841 17.3729C3.85898 17.0769 3.47208 16.7272 3.14826 16.3224C2.82443 15.9175 2.55906 15.4614 2.39794 14.9571C2.23581 14.4555 2.19535 13.9025 2.31155 13.3812C2.33947 13.251 2.37671 13.1229 2.423 12.9981C2.46803 12.873 2.52132 12.7512 2.58253 12.6332C2.64346 12.5154 2.712 12.4016 2.78771 12.2926C2.8263 12.2385 2.86576 12.1847 2.90838 12.1324C2.93876 12.0956 2.96856 12.0596 3.00254 12.023C3.01694 11.9191 3.02832 11.8127 3.04257 11.7061L3.09023 11.3281C3.12205 11.0751 3.15862 10.8214 3.20268 10.569C3.28799 10.0618 3.40265 9.55991 3.54609 9.06595C3.61809 8.81866 3.69915 8.57338 3.78986 8.33141C3.88057 8.08945 3.97834 7.85051 4.08777 7.61632C4.28734 7.19172 4.52952 6.78369 4.82686 6.42089C4.82177 6.4128 4.81562 6.40544 4.80857 6.39899C4.79952 6.391 4.78897 6.38488 4.77754 6.38098C4.76611 6.37709 4.75402 6.3755 4.74197 6.3763C4.72993 6.3771 4.71816 6.38029 4.70734 6.38567C4.69653 6.39104 4.68689 6.39851 4.67898 6.40764C4.33903 6.79738 4.06804 7.24487 3.84861 7.7121C3.73875 7.94614 3.6404 8.18537 3.5507 8.42705C3.461 8.66873 3.3795 8.91401 3.30707 9.16159C3.16336 9.65547 3.04869 10.1574 2.96367 10.6647C2.91961 10.9176 2.88303 11.1709 2.85121 11.4238L2.80355 11.8018C2.78987 11.9088 2.77821 12.0152 2.76352 12.1186C2.72954 12.1551 2.69974 12.1906 2.66921 12.2281C2.62602 12.2802 2.58714 12.3339 2.5487 12.3882C2.47308 12.4972 2.40454 12.6109 2.34352 12.7287C2.28227 12.8466 2.22897 12.9685 2.18398 13.0935C2.13777 13.2184 2.10053 13.3465 2.07253 13.4767C1.95547 13.9982 1.99593 14.551 2.15892 15.0528C2.32048 15.5568 2.58541 16.0136 2.90924 16.4178C3.23307 16.8221 3.62053 17.1724 4.03939 17.4684C4.45806 17.7617 4.90699 18.0092 5.37847 18.2067C5.84614 18.4069 6.32878 18.5624 6.81834 18.6882C7.79745 18.9344 8.79916 19.061 9.79973 19.0946C9.82276 19.0953 9.84522 19.0873 9.8626 19.0722C9.87998 19.057 9.891 19.0359 9.89346 19.0129C9.89389 19.0066 9.89389 19.0002 9.89346 18.9938C8.94099 18.9532 7.98909 18.827 7.05692 18.5928C6.5656 18.469 6.0844 18.308 5.61749 18.1112Z" fill="#4B2600"/>
<path d="M16.3825 18.1112C16.8539 17.9135 17.3028 17.666 17.7216 17.3729C18.141 17.0769 18.5279 16.7272 18.8519 16.3224C19.1758 15.9175 19.441 15.4614 19.6022 14.9571C19.7642 14.4555 19.8052 13.9025 19.6886 13.3812C19.6606 13.251 19.6233 13.1229 19.5771 12.9981C19.5321 12.873 19.4788 12.7511 19.4174 12.6332C19.3566 12.5153 19.288 12.4015 19.2123 12.2926C19.1738 12.2385 19.1344 12.1847 19.0917 12.1324C19.0614 12.0956 19.0314 12.0596 18.9976 12.023C18.9832 11.9191 18.9712 11.8127 18.9575 11.7061L18.9099 11.3281C18.8779 11.0751 18.8415 10.8214 18.7974 10.569C18.7121 10.0618 18.5974 9.55991 18.4539 9.06595C18.3819 8.81866 18.301 8.57338 18.2102 8.33141C18.1195 8.08945 18.0218 7.85051 17.9119 7.61632C17.7122 7.19172 17.47 6.78369 17.1727 6.42089C17.1778 6.4128 17.1839 6.40544 17.191 6.39899C17.2 6.391 17.2106 6.38488 17.222 6.38098C17.2334 6.37709 17.2455 6.3755 17.2576 6.3763C17.2696 6.3771 17.2814 6.38029 17.2922 6.38567C17.303 6.39104 17.3126 6.39851 17.3206 6.40764C17.6605 6.79738 17.9315 7.24487 18.1509 7.7121C18.2608 7.94614 18.3591 8.18537 18.4493 8.42705C18.5394 8.66873 18.6205 8.91401 18.6929 9.16159C18.8367 9.65547 18.9514 10.1574 19.0364 10.6647C19.0805 10.9176 19.1169 11.1709 19.1489 11.4238L19.1966 11.8018C19.211 11.9088 19.2223 12.0152 19.2366 12.1186C19.2704 12.1551 19.3004 12.1906 19.3308 12.2281C19.3739 12.2802 19.4128 12.3339 19.4514 12.3882C19.527 12.4973 19.5955 12.611 19.6566 12.7287C19.7178 12.8467 19.7711 12.9685 19.8161 13.0935C19.8623 13.2185 19.8995 13.3465 19.9276 13.4767C20.0446 13.9982 20.004 14.551 19.8412 15.0528C19.6795 15.5568 19.4146 16.0136 19.0909 16.4178C18.7672 16.8221 18.3796 17.1724 17.9606 17.4684C17.5419 17.7617 17.093 18.0092 16.6215 18.2067C16.1538 18.4069 15.6712 18.5624 15.1816 18.6882C14.2025 18.9344 13.2008 19.061 12.2002 19.0946C12.1762 19.0953 12.1527 19.0865 12.1351 19.0701C12.1174 19.0537 12.107 19.031 12.1059 19.0069C12.1056 19.0025 12.1056 18.9981 12.1059 18.9938C13.0583 18.9532 14.0103 18.827 14.9425 18.5928C15.434 18.469 15.9154 18.308 16.3825 18.1112Z" fill="#4B2600"/>
<path d="M11.0443 13.3098L11.0225 13.3129V13.3062L11.0443 13.3098Z" fill="#512717"/>
<path d="M11.0662 13.3062V13.3129L11.0444 13.3098L11.0662 13.3062Z" fill="#512717"/>
<path d="M12.4497 13.263C12.4497 13.263 12.6103 13.7288 12.1905 13.9679C11.7862 14.1984 11.3101 13.8995 11.0866 13.7252C11.0463 13.694 11.0138 13.654 10.9914 13.6082C10.969 13.5625 10.9574 13.5122 10.9574 13.4612C10.9575 13.5122 10.9459 13.5625 10.9235 13.6084C10.9012 13.6542 10.8687 13.6944 10.8286 13.7258C10.6047 13.9001 10.1289 14.1981 9.72462 13.9685C9.30418 13.7298 9.46545 13.2636 9.46545 13.2636C9.46545 13.2636 9.56523 12.0165 10.9584 12.0165C12.3517 12.0165 12.4497 13.263 12.4497 13.263Z" fill="#FFF3E9"/>
<path d="M12.0124 12.1608C11.8128 12.7198 10.9574 13.0345 10.9574 13.0345C10.9574 13.0345 10.1022 12.7192 9.90267 12.1603C9.76026 11.7604 10.7666 11.6952 10.9574 11.6952C11.1482 11.6952 12.1548 11.761 12.0124 12.1608Z" fill="#4B2600"/>
<g opacity="0.5">
<path opacity="0.5" d="M11.3949 11.9502C11.3124 12.0914 10.9578 12.089 10.9578 12.089C10.9578 12.089 10.6031 12.0914 10.5206 11.9502C10.4613 11.8493 10.8787 11.8326 10.9578 11.8326C11.0368 11.8326 11.4543 11.8488 11.3949 11.9502Z" fill="white"/>
</g>
<path d="M8.97038 14.4591C9.5662 14.5507 10.1511 14.3243 10.5288 14.0354C10.7076 13.8962 10.8594 13.7253 10.9765 13.5313C11.0472 13.418 11.1006 13.2949 11.1349 13.1659C11.1577 13.0795 11.1293 12.9338 11.2357 12.8778C11.5447 12.7132 11.2418 12.4005 10.8917 12.4313C10.5442 12.4617 10.3774 12.8108 10.7393 12.9193C10.7748 12.9268 10.8089 12.9401 10.84 12.9588L10.7234 12.861C10.9479 13.2076 10.7063 13.6891 10.3511 13.9626C9.97368 14.2536 9.4945 14.3276 8.9701 14.4523C8.96506 14.4533 8.96405 14.4595 8.9711 14.4606L8.97038 14.4591Z" fill="#4B2600"/>
<path d="M13.3682 14.4368C12.8267 14.3678 12.3373 14.3451 11.8965 14.1014C11.6797 13.9817 11.5069 13.8368 11.3985 13.666C11.3462 13.5842 11.3037 13.4966 11.2718 13.405C11.2612 13.3736 11.1846 13.1314 11.1923 13.1273C11.52 12.9859 11.4083 12.6348 10.9856 12.6348C10.5818 12.6348 10.4241 12.9948 10.7789 13.1273C10.868 13.1603 10.9187 13.398 10.9567 13.4608C11.0169 13.561 11.0874 13.6546 11.1669 13.7403C11.3437 13.9324 11.5519 14.0931 11.7825 14.2156C12.2228 14.4446 12.8235 14.5901 13.3682 14.4452C13.3733 14.4452 13.3753 14.4385 13.3682 14.4375V14.4368Z" fill="#4B2600"/>
<path d="M13.5246 1.03065C13.5246 0.415935 12.439 -0.071167 11.1192 -0.071167C9.79943 -0.071167 8.69678 0.415935 8.69678 1.03065C8.69838 1.14171 8.73214 1.24992 8.79397 1.34218L9.45991 2.83863C9.50163 2.92361 9.56644 2.99512 9.64691 3.04497C9.72738 3.09482 9.82025 3.12099 9.9149 3.12049H12.1725C12.2615 3.12095 12.349 3.09783 12.4261 3.05349C12.5033 3.00914 12.5674 2.94514 12.6118 2.86801L13.3955 1.39086C13.479 1.27794 13.5246 1.15624 13.5246 1.03065Z" fill="#381F1F"/>
<path d="M12.1725 3.14324H9.91462C9.81582 3.14354 9.71892 3.11611 9.63492 3.06407C9.55093 3.01203 9.48321 2.93746 9.43947 2.84885L8.77424 1.35283C8.71065 1.25707 8.67596 1.14502 8.67432 1.03006C8.67432 0.725014 8.93349 0.439551 9.4039 0.22783C9.86466 0.0201418 10.4743 -0.0943604 11.1192 -0.0943604C11.7641 -0.0943604 12.3696 0.0208619 12.826 0.22783C13.2911 0.439695 13.547 0.724438 13.547 1.03006C13.547 1.15782 13.5024 1.28341 13.4142 1.4031L12.6309 2.87924C12.5847 2.95991 12.518 3.02686 12.4374 3.07324C12.3569 3.11963 12.2654 3.14378 12.1725 3.14324ZM9.47993 2.82955C9.51998 2.91045 9.5819 2.9785 9.65866 3.02598C9.73541 3.07346 9.82394 3.09846 9.91419 3.09816H12.1725C12.2573 3.09853 12.3408 3.07652 12.4144 3.03434C12.4881 2.99217 12.5493 2.93131 12.5919 2.85792L13.3764 1.37919L13.3774 1.37775C13.4605 1.26526 13.5025 1.1486 13.5025 1.03006C13.5025 0.435086 12.4335 -0.0488476 11.1199 -0.0488476C10.4811 -0.0488476 9.87877 0.0642143 9.42334 0.269454C9.20189 0.369265 9.02809 0.485496 8.907 0.613969C8.78288 0.74633 8.71982 0.886181 8.71982 1.03006C8.72155 1.13683 8.7541 1.24081 8.81355 1.3295L8.81514 1.33267L9.47993 2.82955Z" fill="#784421"/>
<path d="M3.94262 7.93256C3.99468 7.77435 4.06581 7.62306 4.15442 7.48204C4.118 7.49907 4.08463 7.52199 4.05565 7.54988C5.28213 4.56663 7.62364 3.05448 11.021 3.05448C14.6037 3.05448 17.0075 4.7314 18.1732 8.04101C18.3601 8.32884 18.5076 8.64034 18.612 8.96725L18.4894 8.55332C18.2766 7.83318 18.0065 7.17137 17.6874 6.58763C17.3024 5.88319 16.8343 5.27049 16.2962 4.76683C15.6762 4.18654 14.9482 3.73602 14.1321 3.42852C13.2187 3.08386 12.172 2.9093 11.0214 2.9093C9.96875 2.9093 9.00116 3.05578 8.14703 3.34412C7.3744 3.6051 6.67577 3.98821 6.07045 4.48338C5.07594 5.29671 4.30633 6.43179 3.78251 7.85723L3.64673 8.22724L3.9036 7.93083L3.94262 7.93256Z" fill="#784421"/>
<path d="M4.17554 7.47189L4.61585 7.32959C4.42492 7.37611 4.27546 7.42378 4.17554 7.47189Z" fill="#784421"/>
<path d="M10.9556 5.58832C12.0533 5.58832 12.8579 4.87077 13.672 4.97375C14.1856 5.03857 14.8412 5.34967 15.3083 5.672C15.3767 5.7191 15.5231 5.79255 15.5869 5.82294C16.998 6.49397 17.8034 7.77049 18.4954 8.82247C17.728 6.13059 15.8799 2.92798 10.9779 2.92798C6.51271 2.92798 4.58098 5.58486 3.69287 8.09326C5.55217 6.35916 6.659 5.46518 7.86849 4.94279C8.43234 4.69909 7.56957 5.08422 8.30362 5.04058C9.06387 4.9955 10.0634 5.58832 10.9556 5.58832Z" fill="#381F1F"/>
<path d="M9.56437 2.92371C11.0696 1.65525 12.4585 2.68808 12.555 2.84262C12.599 2.91305 12.5494 3.01891 12.5494 3.01891C12.5494 3.01891 11.5168 2.85472 11.1491 2.88568C10.7813 2.91665 9.55371 3.04728 9.55371 3.04728L9.56437 2.92371Z" fill="#1E1313"/>
<path d="M10.1678 2.03601C10.0006 2.13438 10.1409 2.50021 10.2185 2.64093C10.2961 2.78164 10.372 2.88001 10.4307 2.92769L10.4804 2.90392L10.5668 2.85366L10.5121 2.81045C10.4909 2.79374 10.4067 2.69523 10.3353 2.5656C10.2638 2.43598 10.197 2.27265 10.1769 2.10745L10.1678 2.03601Z" fill="#784421"/>
<path d="M10.5119 2.44849C10.573 2.59871 10.6432 2.74507 10.7221 2.88676L10.7575 2.94913L10.8736 2.87265L10.8376 2.81029C10.7619 2.67433 10.6946 2.53388 10.636 2.38972C10.5368 2.14689 10.4441 1.83982 10.4567 1.60059L10.4608 1.52771C10.217 1.61038 10.4439 2.28127 10.5119 2.44849Z" fill="#784421"/>
<path d="M10.8319 2.33597C10.8528 2.45407 10.8795 2.57098 10.9119 2.68668C10.9389 2.78044 10.9596 2.84266 10.9839 2.88529L11.0199 2.94708L11.1351 2.86959L11.1 2.80853C11.0766 2.75549 11.0574 2.70074 11.0424 2.64477C11.0114 2.5343 10.9861 2.42234 10.9664 2.30932C10.9197 2.04575 10.8899 1.71953 10.9278 1.42153L10.937 1.34851C10.719 1.35686 10.8001 2.15305 10.8319 2.33597Z" fill="#784421"/>
<path d="M11.2824 1.6748C11.3098 1.85412 11.2824 2.03358 11.2673 2.19777C11.246 2.42317 11.2136 2.67911 11.1809 2.83365L11.1665 2.90567L11.2997 2.93764L11.3141 2.86563C11.3491 2.69783 11.3809 2.44146 11.4028 2.21246C11.4182 1.98533 11.4391 1.68734 11.2824 1.6748Z" fill="#784421"/>
<path d="M11.8212 1.54297L11.8152 1.61585C11.8076 1.70558 11.7484 1.95186 11.6744 2.19354C11.6004 2.43522 11.5102 2.68323 11.4509 2.78909L11.415 2.85175L11.5315 2.92736L11.5665 2.865C11.6415 2.73163 11.7282 2.48592 11.8031 2.2392C11.8705 1.98528 11.9775 1.57682 11.8212 1.54297Z" fill="#784421"/>
<path d="M12.1183 2.02234L12.1 2.09277C12.0807 2.16824 11.8958 2.65981 11.7914 2.81133L11.751 2.86966L11.8755 2.91575L11.9009 2.89803C12.0296 2.70547 12.2722 2.08845 12.1183 2.02234Z" fill="#784421"/>
<path d="M6.81064 5.79765L3.70874 8.15899L4.48425 6.91041L6.38761 5.14535L7.51531 4.92297L7.57809 5.16163L6.81064 5.79765Z" fill="#381F1F"/>
<path d="M18.3556 8.58519C18.3556 8.58519 15.05 5.18239 13.9846 4.99141C12.9192 4.80043 14.0003 4.27588 14.0003 4.27588L16.0055 5.32527L17.8226 7.63101L18.3556 8.58519Z" fill="#381F1F"/>
<path d="M6.77368 5.81076C7.11263 5.31011 7.98245 4.63058 8.62636 4.65536C9.50079 4.68935 10.5961 5.21577 11.0682 5.17933C11.5404 5.1429 12.9249 4.54287 13.6515 4.64311C14.378 4.74336 15.2336 5.64052 15.3298 5.79146C15.426 5.9424 14.8166 5.36024 14.5076 5.27209C14.1986 5.18394 13.9432 4.96848 13.5942 4.99383C13.2452 5.01917 12.0247 5.38054 11.7224 5.50974C11.42 5.63893 11.3287 5.72578 11.0197 5.70835C10.7107 5.69093 9.70338 5.27915 9.48884 5.21938C9.2743 5.1596 8.50094 4.94874 8.29015 4.99238C8.07935 5.03603 7.02047 5.54618 6.77368 5.81076Z" fill="#1E1313"/>
<path d="M8.79038 4.45224C8.86842 4.71624 8.97987 4.9788 9.13941 5.11765L9.18347 5.15624L9.26454 5.07372L9.22134 5.03569C9.09924 4.92969 8.98117 4.67692 8.90615 4.42242C8.83113 4.16793 8.79427 3.90565 8.80392 3.79317L8.80838 3.73743C8.63487 3.74578 8.76158 4.35243 8.79038 4.45224Z" fill="#784421"/>
<path d="M9.74943 4.98743C9.79631 5.07996 9.84921 5.1693 9.90781 5.25489C9.94035 5.30473 9.97731 5.35154 10.0183 5.39474L10.0614 5.43478L10.1465 5.35571L10.1045 5.31567C10.0699 5.27735 10.0381 5.23658 10.0093 5.19368C9.95318 5.11243 9.90271 5.02739 9.85828 4.93918C9.75548 4.73653 9.66433 4.47757 9.6711 4.22221L9.67211 4.16589C9.44951 4.2657 9.68852 4.86529 9.74943 4.98743Z" fill="#784421"/>
<path d="M10.4201 4.92039C10.4642 5.082 10.5168 5.24117 10.5776 5.39727C10.6025 5.46006 10.6257 5.51249 10.646 5.55339C10.6663 5.5943 10.677 5.61864 10.7017 5.64298L10.7433 5.68302L10.8297 5.60553L10.7883 5.56506C10.7923 5.56909 10.7726 5.54273 10.7543 5.50615C10.736 5.46957 10.7142 5.41901 10.6899 5.35823C10.6303 5.20589 10.5789 5.05045 10.536 4.89259C10.4366 4.52964 10.3632 4.09137 10.4189 3.76399L10.428 3.70825C10.1654 3.79899 10.3431 4.66402 10.4201 4.92039Z" fill="#784421"/>
<path d="M11.5777 3.68713C11.6283 3.80725 11.5777 4.28917 11.5468 4.55317C11.5007 4.94953 11.4156 5.38522 11.3086 5.57029L11.2798 5.61998L11.3852 5.67313L11.414 5.62344C11.5436 5.3989 11.6238 4.96725 11.6663 4.56541C11.6936 4.29968 11.7763 3.71032 11.5777 3.68713Z" fill="#784421"/>
<path d="M12.3676 4.06506C12.3408 4.28407 12.3021 4.50144 12.2515 4.71621C12.1918 4.95588 12.1036 5.19669 12.0109 5.30197L11.9729 5.34518L12.0651 5.4172L12.1031 5.37399C12.2258 5.23471 12.3109 4.98886 12.3676 4.74214C12.4233 4.50089 12.4693 4.16646 12.3676 4.06506Z" fill="#784421"/>
<path d="M13.2754 3.79639C13.2978 4.05563 13.126 4.67365 12.8858 5.00304L12.8508 5.04855L12.9482 5.11394L12.9832 5.06828C13.1796 4.90827 13.5215 3.8599 13.2754 3.79639Z" fill="#784421"/>
<path d="M12.587 2.9857C12.587 2.85996 12.0303 2.58789 11.1087 2.58789C10.187 2.58789 9.54541 2.87004 9.54541 2.99578C9.54541 3.12151 10.1918 2.93817 11.1138 2.93817C12.0359 2.93817 12.587 3.11186 12.587 2.9857Z" fill="#D30707"/>
<path d="M8.03448 10.4L7.94536 10.2951C7.91339 10.2565 7.8784 10.2191 7.84457 10.1799C7.77516 10.1044 7.70375 10.0299 7.62859 9.95894C7.4787 9.81765 7.32017 9.68428 7.1458 9.57381C7.05802 9.51877 6.96721 9.46872 6.87381 9.42388C6.77844 9.38004 6.68038 9.34233 6.58022 9.31096C6.37864 9.24658 6.16266 9.21417 5.93617 9.20092H5.93228C5.90644 9.19925 5.88199 9.18865 5.8631 9.17092C5.84422 9.1532 5.83209 9.12946 5.82879 9.10377C5.82549 9.07808 5.83122 9.05204 5.84501 9.03011C5.85879 9.00819 5.87977 8.99174 5.90435 8.98359C6.14465 8.90512 6.39707 8.87044 6.64962 8.88118C6.90943 8.8931 7.16548 8.9479 7.40742 9.04336C7.7725 9.18512 8.1016 9.40614 8.37098 9.69047C8.41619 9.73714 8.45824 9.78683 8.50057 9.83796C8.5213 9.86374 8.54103 9.8901 8.56076 9.91746C8.57098 9.93071 8.58048 9.9454 8.58955 9.96067L8.62209 10.0108C8.67083 10.0857 8.6892 10.1763 8.67346 10.2643C8.65772 10.3523 8.60907 10.4309 8.53739 10.4843C8.46572 10.5376 8.37642 10.5616 8.28767 10.5514C8.19892 10.5412 8.11739 10.4976 8.05968 10.4293L8.03448 10.4Z" fill="#4B2600"/>
<path d="M9.08932 8.71C8.91812 8.90962 8.50416 8.83573 8.16478 8.5448C7.82541 8.25386 7.68891 7.85606 7.85982 7.65643C8.03073 7.45681 8.38969 7.52566 8.72907 7.81659C9.06844 8.10753 9.26009 8.51037 9.08932 8.71Z" fill="white"/>
<path d="M13.7127 10.4L13.8018 10.2951C13.8343 10.2565 13.8687 10.2191 13.9026 10.1799C13.972 10.1044 14.0434 10.0299 14.1186 9.95894C14.2685 9.81765 14.427 9.68428 14.6013 9.57381C14.6893 9.51895 14.7803 9.46908 14.8739 9.42445C14.9692 9.38041 15.0671 9.3425 15.1672 9.31096C15.3699 9.24658 15.5856 9.21417 15.8117 9.20092H15.8152C15.841 9.19925 15.8654 9.18865 15.8843 9.17092C15.9032 9.1532 15.9153 9.12946 15.9186 9.10377C15.9219 9.07808 15.9162 9.05204 15.9024 9.03011C15.8886 9.00819 15.8677 8.99174 15.8431 8.98359C15.6028 8.90512 15.3504 8.87044 15.0978 8.88118C14.838 8.8931 14.582 8.9479 14.34 9.04336C13.975 9.18518 13.6459 9.40618 13.3765 9.69047C13.3314 9.73714 13.2893 9.78683 13.2469 9.83796C13.2261 9.86374 13.2064 9.8901 13.1867 9.91746C13.1765 9.93071 13.1668 9.9454 13.1579 9.96067L13.1245 10.0099C13.0758 10.0848 13.0574 10.1755 13.0731 10.2634C13.0889 10.3514 13.1375 10.4301 13.2092 10.4834C13.2809 10.5367 13.3702 10.5607 13.4589 10.5505C13.5477 10.5403 13.6292 10.4967 13.6869 10.4285L13.7127 10.4Z" fill="#4B2600"/>
<path d="M12.6589 8.71C12.8301 8.90962 13.2435 8.83573 13.5834 8.5448C13.9234 8.25386 14.0596 7.85606 13.8884 7.65643C13.7172 7.45681 13.3585 7.52566 13.0191 7.81659C12.6798 8.10753 12.4877 8.51037 12.6589 8.71Z" fill="white"/>
</g>
<defs>
<clipPath id="clip0_152_459">
<rect width="22" height="19" fill="white"/>
</clipPath>
</defs>
</svg>
